HIERARCHY
ROOT hip
{
	OFFSET	0.00  0.00  0.00 
	CHANNELS 6 Xposition Yposition Zposition Xrotation Zrotation Yrotation
	JOINT waist
	{
		OFFSET	0.000000 2.191865 -0.079388
		CHANNELS 3 Xrotation Zrotation Yrotation
		JOINT abdomen
		{
			OFFSET	0.000000 2.770984 0.119082
			CHANNELS 3 Xrotation Zrotation Yrotation
			JOINT chest
			{
				OFFSET	0.000000 2.879627 -0.290598
				CHANNELS 3 Xrotation Zrotation Yrotation
				JOINT neck
				{
					OFFSET	0.000000 12.342733 -1.613748
					CHANNELS 3 Xrotation Zrotation Yrotation
					JOINT head
					{
						OFFSET	0.000000 4.485597 1.807195
						CHANNELS 3 Xrotation Zrotation Yrotation
						End Site
						{
							OFFSET 0.000000 7.191734 2.024398
						}
					}
				}
				JOINT lCollar
				{
					OFFSET	1.858774 10.237258 -1.915852
					CHANNELS 3 Zrotation Yrotation Xrotation
					JOINT lShldr
					{
						OFFSET	6.103279 0.000102 -0.038601
						CHANNELS 3 Zrotation Yrotation Xrotation
						JOINT lForeArm
						{
							OFFSET	10.574100 -0.365985 -0.655940
							CHANNELS 3 Zrotation Yrotation Xrotation
							JOINT lHand
							{
								OFFSET	13.213392 -0.641131 0.276866
								CHANNELS 3 Zrotation Yrotation Xrotation
								JOINT lThumb1
								{
									OFFSET	1.920964 -1.225712 1.722395
									CHANNELS 3 Zrotation Yrotation Xrotation
									JOINT lThumb2
									{
										OFFSET	0.248544 -0.143036 0.768265
										CHANNELS 3 Zrotation Yrotation Xrotation
										JOINT lThumb3
										{
											OFFSET	0.628484 -0.225174 0.508305
											CHANNELS 3 Zrotation Yrotation Xrotation
											End Site
											{
												OFFSET 0.831712 -0.207978 0.609962
											}
										}
									}
								}
								JOINT lIndex1
								{
									OFFSET	5.093442 -0.710319 1.829884
									CHANNELS 3 Zrotation Yrotation Xrotation
									JOINT lIndex2
									{
										OFFSET	0.889470 -0.051998 0.127073
										CHANNELS 3 Zrotation Yrotation Xrotation
										JOINT lIndex3
										{
											OFFSET	0.889570 -0.155981 0.127073
											CHANNELS 3 Zrotation Yrotation Xrotation
											End Site
											{
												OFFSET 0.797115 -0.294470 0.076252
											}
										}
									}
								}
								JOINT lMid1
								{
									OFFSET	5.154641 -0.519844 0.864111
									CHANNELS 3 Zrotation Yrotation Xrotation
									JOINT lMid2
									{
										OFFSET	0.928821 -0.051992 0.050831
										CHANNELS 3 Zrotation Yrotation Xrotation
										JOINT lMid3
										{
											OFFSET	0.984253 -0.311865 0.050831
											CHANNELS 3 Zrotation Yrotation Xrotation
											End Site
											{
												OFFSET 0.779717 -0.606438 -0.050831
											}
										}
									}
								}
								JOINT lRing1
								{
									OFFSET	4.924408 -0.754930 -0.235503
									CHANNELS 3 Zrotation Yrotation Xrotation
									JOINT lRing2
									{
										OFFSET	0.981624 -0.036924 -0.108278
										CHANNELS 3 Zrotation Yrotation Xrotation
										JOINT lRing3
										{
											OFFSET	0.805613 -0.205247 -0.041717
											CHANNELS 3 Zrotation Yrotation Xrotation
											End Site
											{
												OFFSET 0.667431 -0.470481 -0.035991
											}
										}
									}
								}
								JOINT lPinky1
								{
									OFFSET	4.535460 -0.816635 -1.006206
									CHANNELS 3 Zrotation Yrotation Xrotation
									JOINT lPinky2
									{
										OFFSET	0.690596 -0.064334 -0.168800
										CHANNELS 3 Zrotation Yrotation Xrotation
										JOINT lPinky3
										{
											OFFSET	0.598039 -0.111176 -0.071973
											CHANNELS 3 Zrotation Yrotation Xrotation
											End Site
											{
												OFFSET 0.422025 -0.290925 -0.035981
											}
										}
									}
								}
							}
						}
					}
				}
				JOINT rCollar
				{
					OFFSET	-1.858774 10.237258 -1.915852
					CHANNELS 3 Zrotation Yrotation Xrotation
					JOINT rShldr
					{
						OFFSET	-6.103279 0.000102 -0.038601
						CHANNELS 3 Zrotation Yrotation Xrotation
						JOINT rForeArm
						{
							OFFSET	-10.574100 -0.365985 -0.655940
							CHANNELS 3 Zrotation Yrotation Xrotation
							JOINT rHand
							{
								OFFSET	-13.213392 -0.641131 0.276866
								CHANNELS 3 Zrotation Yrotation Xrotation
								JOINT rIndex1
								{
									OFFSET	-5.093442 -0.710319 1.829884
									CHANNELS 3 Zrotation Yrotation Xrotation
									JOINT rIndex2
									{
										OFFSET	-0.889470 -0.051998 0.127073
										CHANNELS 3 Zrotation Yrotation Xrotation
										JOINT rIndex3
										{
											OFFSET	-0.889570 -0.155981 0.127073
											CHANNELS 3 Zrotation Yrotation Xrotation
											End Site
											{
												OFFSET -0.797115 -0.294470 0.076252
											}
										}
									}
								}
								JOINT rThumb1
								{
									OFFSET	-1.920964 -1.225712 1.722395
									CHANNELS 3 Zrotation Yrotation Xrotation
									JOINT rThumb2
									{
										OFFSET	-0.248544 -0.143036 0.768265
										CHANNELS 3 Zrotation Yrotation Xrotation
										JOINT rThumb3
										{
											OFFSET	-0.628484 -0.225174 0.508305
											CHANNELS 3 Zrotation Yrotation Xrotation
											End Site
											{
												OFFSET -0.831712 -0.207978 0.609962
											}
										}
									}
								}
								JOINT rMid1
								{
									OFFSET	-5.154641 -0.519844 0.864111
									CHANNELS 3 Zrotation Yrotation Xrotation
									JOINT rMid2
									{
										OFFSET	-0.928821 -0.051992 0.050831
										CHANNELS 3 Zrotation Yrotation Xrotation
										JOINT rMid3
										{
											OFFSET	-0.984253 -0.311865 0.050831
											CHANNELS 3 Zrotation Yrotation Xrotation
											End Site
											{
												OFFSET -0.779717 -0.606438 -0.050831
											}
										}
									}
								}
								JOINT rRing1
								{
									OFFSET	-4.924408 -0.754930 -0.235503
									CHANNELS 3 Zrotation Yrotation Xrotation
									JOINT rRing2
									{
										OFFSET	-0.981624 -0.036924 -0.108278
										CHANNELS 3 Zrotation Yrotation Xrotation
										JOINT rRing3
										{
											OFFSET	-0.805613 -0.205247 -0.041717
											CHANNELS 3 Zrotation Yrotation Xrotation
											End Site
											{
												OFFSET -0.667431 -0.470481 -0.035991
											}
										}
									}
								}
								JOINT rPinky1
								{
									OFFSET	-4.535460 -0.816635 -1.006206
									CHANNELS 3 Zrotation Yrotation Xrotation
									JOINT rPinky2
									{
										OFFSET	-0.690596 -0.064334 -0.168800
										CHANNELS 3 Zrotation Yrotation Xrotation
										JOINT rPinky3
										{
											OFFSET	-0.598039 -0.111176 -0.071973
											CHANNELS 3 Zrotation Yrotation Xrotation
											End Site
											{
												OFFSET -0.422025 -0.290925 -0.035981
											}
										}
									}
								}
							}
						}
					}
				}
			}
		}
	}
	JOINT lThigh
	{
		OFFSET	5.761895 -0.730553 0.000101
		CHANNELS 3 Xrotation Zrotation Yrotation
		JOINT lShin
		{
			OFFSET	-1.171020 -18.459274 1.627449
			CHANNELS 3 Xrotation Zrotation Yrotation
			JOINT lFoot
			{
				OFFSET	-0.883715 -16.872776 -3.357785
				CHANNELS 3 Xrotation Zrotation Yrotation
				JOINT lToe
				{
					OFFSET	1.287613 -2.778491 2.836049
					CHANNELS 3 Xrotation Yrotation Zrotation
					End Site
					{
						OFFSET 1.362641 -0.436631 3.828194
					}
				}
			}
		}
	}
	JOINT rThigh
	{
		OFFSET	-5.761895 -0.730553 0.000101
		CHANNELS 3 Xrotation Zrotation Yrotation
		JOINT rShin
		{
			OFFSET	1.171020 -18.459274 1.627449
			CHANNELS 3 Xrotation Zrotation Yrotation
			JOINT rFoot
			{
				OFFSET	0.883715 -16.872776 -3.357785
				CHANNELS 3 Xrotation Zrotation Yrotation
				JOINT rToe
				{
					OFFSET	-1.287613 -2.778491 2.836049
					CHANNELS 3 Xrotation Yrotation Zrotation
					End Site
					{
						OFFSET -1.362641 -0.436631 3.828194
					}
				}
			}
		}
	}
}
MOTION
Frames:     6
Frame Time: 0.033333
0.000000 37.035538 -0.646068 3.976721 -3.204786 10.940480 -12.288111 0.236776 -4.291342 5.821594 8.260258 -11.714545 0.400046 5.162035 -10.527068 8.984373 0.000000 0.000000 -21.726196 -2.828403 12.192312 8.257570 -4.899624 -47.990635 -43.202667 5.859476 32.131790 3.704448 -67.345596 -18.691395 -4.294965 -34.495796 -4.641161 -12.627208 11.638309 20.162668 -3.293140 8.317117 -1.149148 29.196537 71.075630 38.871639 -54.965202 2.879369 9.509399 -95.296021 8.111157 8.823874 -72.485527 2.706130 5.538720 -69.186958 -8.841559 3.732819 -96.653351 5.565853 4.206008 -104.697495 2.775360 0.587669 -72.044975 -21.715500 -13.932326 -96.105949 9.247877 1.661926 -81.692566 -2.195071 -3.773858 -50.893284 -42.604092 -31.837162 -87.515419 -10.495460 -10.194331 -92.548531 -2.970826 -5.335632 -8.847166 -6.056872 29.021786 64.875526 -4.487344 28.881006 0.050678 2.234368 12.907400 8.449649 -4.205046 0.867151 54.933743 -2.902004 9.502135 95.265129 -8.128082 8.817611 72.455811 -2.719508 5.533987 12.593740 -11.672023 20.159027 3.256804 -8.355879 -1.150117 -29.337605 -71.104477 38.977356 69.155098 8.819241 3.724901 96.623543 -5.585068 4.202341 104.668701 -2.795059 0.590718 72.036667 21.704552 -13.928338 96.077934 -9.268408 1.657199 81.664215 2.171377 -3.769496 50.860275 42.577377 -31.794491 87.487709 10.471458 -10.199956 92.519615 2.956037 -5.337673 35.817699 0.760193 -2.388688 -14.654723 -2.437597 -9.626198 17.544390 -1.647785 -4.547918 -34.631783 -4.279342 11.400160 -28.707918 6.048245 -9.473296 -3.785801 -1.099403 -6.205743 -9.747408 12.610779 -1.839637 -28.118979 2.936564 -9.485223 
0.000000 36.444401 -0.646068 2.899311 -2.813472 8.710813 -11.431239 0.283620 -3.423409 7.587058 7.263518 -9.188508 0.660660 3.534180 -8.914855 7.569341 0.548542 -1.042265 -20.119003 -1.504635 11.079367 6.178382 -2.231250 -41.466221 -49.152000 3.702103 30.354931 2.297205 -59.779198 -15.002919 -7.133124 -28.855812 -3.569566 -12.627208 11.638309 20.162668 -3.293140 8.317117 -1.149148 29.196537 71.075630 38.871639 -54.965202 2.879369 9.509399 -95.296021 8.111157 8.823874 -72.485527 2.706130 5.538720 -69.186958 -8.841559 3.732819 -96.653351 5.565853 4.206008 -104.697495 2.775360 0.587669 -72.044975 -21.715500 -13.932326 -96.105949 9.247877 1.661926 -81.692566 -2.195071 -3.773858 -50.893284 -42.604092 -31.837162 -87.515419 -10.495460 -10.194331 -92.548531 -2.970826 -5.335632 -7.138827 -6.662602 25.174673 64.822205 -2.120308 28.469215 0.036743 7.723434 13.285134 10.355568 -4.669079 1.012474 54.933743 -2.902004 9.502135 95.265129 -8.128082 8.817611 72.455811 -2.719508 5.533987 12.593740 -11.672023 20.159027 3.256804 -8.355879 -1.150117 -29.337605 -71.104477 38.977356 69.155098 8.819241 3.724901 96.623543 -5.585068 4.202341 104.668701 -2.795059 0.590718 72.036667 21.704552 -13.928338 96.077934 -9.268408 1.657199 81.664215 2.171377 -3.769496 50.860275 42.577377 -31.794491 87.487709 10.471458 -10.199956 92.519615 2.956037 -5.337673 31.110882 -0.797036 0.742296 1.155271 -2.306107 -10.202843 15.506769 1.103411 -0.051103 -35.028297 -4.367575 11.513958 -30.574282 4.207731 -8.350585 9.413321 3.981716 -6.953607 13.017568 -3.496788 0.258909 -13.781498 0.843265 -4.813637 
0.000000 36.082157 -0.646068 1.489221 -2.364858 6.022699 -10.300740 0.329503 -2.350168 9.840571 6.096785 -6.139291 0.985555 1.536933 -6.992236 5.727396 1.254321 -2.347803 -18.043026 -0.548225 9.995407 3.473593 1.139066 -33.637543 -56.151592 0.920736 29.233662 1.324344 -50.339539 -11.253074 -10.567475 -21.826443 -2.376019 -12.627208 11.638309 20.162668 -3.293140 8.317117 -1.149148 29.196537 71.075630 38.871639 -54.965202 2.879369 9.509399 -95.296021 8.111157 8.823874 -72.485527 2.706130 5.538720 -69.186958 -8.841559 3.732819 -96.653351 5.565853 4.206008 -104.697495 2.775360 0.587669 -72.044975 -21.715500 -13.932326 -96.105949 9.247877 1.661926 -81.692566 -2.195071 -3.773858 -50.893284 -42.604092 -31.837162 -87.515419 -10.495460 -10.194331 -92.548531 -2.970826 -5.335632 -4.915993 -7.541939 20.805521 64.823761 0.951785 27.972841 -0.004109 14.189452 14.125156 12.841460 -5.576072 1.240615 54.933743 -2.902004 9.502135 95.265129 -8.128082 8.817611 72.455811 -2.719508 5.533987 12.593740 -11.672023 20.159027 3.256804 -8.355879 -1.150117 -29.337605 -71.104477 38.977356 69.155098 8.819241 3.724901 96.623543 -5.585068 4.202341 104.668701 -2.795059 0.590718 72.036667 21.704552 -13.928338 96.077934 -9.268408 1.657199 81.664215 2.171377 -3.769496 50.860275 42.577377 -31.794491 87.487709 10.471458 -10.199956 92.519615 2.956037 -5.337673 19.274475 -1.830237 5.239725 25.749689 -2.349504 -11.194143 15.640990 1.328590 4.596377 -34.144974 -4.172130 11.260336 -29.584030 4.426538 -6.812821 19.559868 5.869737 -6.498841 -0.801021 -15.084752 8.313987 0.552175 -0.019649 0.185611 
0.000000 36.643879 -0.646068 -0.010841 -1.893834 3.188958 -9.081558 0.359248 -1.198039 12.193156 4.865882 -2.927624 1.340854 -0.570535 -4.976653 3.791363 1.998374 -3.741785 -15.842792 -0.148890 9.024248 0.605011 4.708493 -25.375309 -61.621990 -1.968445 31.021338 0.731068 -40.343143 -7.708922 -14.002109 -14.385151 -1.228923 -12.627208 11.638309 20.162668 -3.293140 8.317117 -1.149148 29.196537 71.075630 38.871639 -54.965202 2.879369 9.509399 -95.296021 8.111157 8.823874 -72.485527 2.706130 5.538720 -69.186958 -8.841559 3.732819 -96.653351 5.565853 4.206008 -104.697495 2.775360 0.587669 -72.044975 -21.715500 -13.932326 -96.105949 9.247877 1.661926 -81.692566 -2.195071 -3.773858 -50.893284 -42.604092 -31.837162 -87.515419 -10.495460 -10.194331 -92.548531 -2.970826 -5.335632 -2.558059 -8.490604 16.201637 65.573990 4.223782 27.428457 -0.057219 19.369989 15.082359 15.475306 -6.557131 1.483818 54.933743 -2.902004 9.502135 95.265129 -8.128082 8.817611 72.455811 -2.719508 5.533987 12.593740 -11.672023 20.159027 3.256804 -8.355879 -1.150117 -29.337605 -71.104477 38.977356 69.155098 8.819241 3.724901 96.623543 -5.585068 4.202341 104.668701 -2.795059 0.590718 72.036667 21.704552 -13.928338 96.077934 -9.268408 1.657199 81.664215 2.171377 -3.769496 50.860275 42.577377 -31.794491 87.487709 10.471458 -10.199956 92.519615 2.956037 -5.337673 14.343644 -2.278805 9.586213 34.878796 -2.148795 -12.040219 17.261869 0.293995 8.347255 -29.293177 -3.172002 9.822036 -23.099400 6.084981 -4.433702 21.443132 5.210721 -6.342937 -11.420559 -18.222919 12.914159 6.048842 -0.015312 2.131341 
0.000000 37.514473 -0.646068 -1.376669 -1.392671 0.316453 -7.959037 0.381346 0.003225 14.327050 3.558905 0.306419 1.666851 -2.657689 -2.892542 2.004267 2.710565 -5.059048 -13.820477 -0.122969 8.024540 -2.025179 8.127544 -16.981070 -63.703148 -4.549594 34.918785 0.380813 -30.667887 -4.387029 -17.036797 -7.138786 -0.176943 -12.627208 11.638309 20.162668 -3.293140 8.317117 -1.149148 29.196537 71.075630 38.871639 -54.965202 2.879369 9.509399 -95.296021 8.111157 8.823874 -72.485527 2.706130 5.538720 -69.186958 -8.841559 3.732819 -96.653351 5.565853 4.206008 -104.697495 2.775360 0.587669 -72.044975 -21.715500 -13.932326 -96.105949 9.247877 1.661926 -81.692566 -2.195071 -3.773858 -50.893284 -42.604092 -31.837162 -87.515419 -10.495460 -10.194331 -92.548531 -2.970826 -5.335632 -0.398559 -9.225487 11.171887 67.500122 7.254231 26.888786 -0.089602 21.865917 15.641366 17.867014 -7.056468 1.653227 54.933743 -2.902004 9.502135 95.265129 -8.128082 8.817611 72.455811 -2.719508 5.533987 12.593740 -11.672023 20.159027 3.256804 -8.355879 -1.150117 -29.337605 -71.104477 38.977356 69.155098 8.819241 3.724901 96.623543 -5.585068 4.202341 104.668701 -2.795059 0.590718 72.036667 21.704552 -13.928338 96.077934 -9.268408 1.657199 81.664215 2.171377 -3.769496 50.860275 42.577377 -31.794491 87.487709 10.471458 -10.199956 92.519615 2.956037 -5.337673 11.605524 -2.504445 13.706405 37.883881 -1.584605 -12.920849 14.513190 -0.191186 10.704292 -21.509460 -1.838188 7.368309 -14.813886 7.314676 -1.653299 18.949499 3.944114 -6.654010 -13.859186 -15.473289 13.837471 3.535321 -0.040462 1.241674 
0.000000 38.186569 -0.646068 -2.422693 -0.864141 -2.447643 -7.108867 0.364417 1.206283 15.911536 2.177493 3.405113 1.911686 -4.580945 -0.791710 0.666756 3.304068 -6.148993 -12.289745 -0.264204 6.827917 -4.042494 11.007013 -8.774658 -63.224613 -6.438624 39.306538 0.183868 -22.181040 -1.340543 -19.292252 -0.707614 0.724453 -12.627208 11.638309 20.162668 -3.293140 8.317117 -1.149148 29.196537 71.075630 38.871639 -54.965202 2.879369 9.509399 -95.296021 8.111157 8.823874 -72.485527 2.706130 5.538720 -69.186958 -8.841559 3.732819 -96.653351 5.565853 4.206008 -104.697495 2.775360 0.587669 -72.044975 -21.715500 -13.932326 -96.105949 9.247877 1.661926 -81.692566 -2.195071 -3.773858 -50.893284 -42.604092 -31.837162 -87.515419 -10.495460 -10.194331 -92.548531 -2.970826 -5.335632 1.228492 -9.493520 5.493917 69.566132 9.554947 26.378454 -0.124156 23.438585 15.136085 19.642532 -6.496289 1.656335 54.933743 -2.902004 9.502135 95.265129 -8.128082 8.817611 72.455811 -2.719508 5.533987 12.593740 -11.672023 20.159027 3.256804 -8.355879 -1.150117 -29.337605 -71.104477 38.977356 69.155098 8.819241 3.724901 96.623543 -5.585068 4.202341 104.668701 -2.795059 0.590718 72.036667 21.704552 -13.928338 96.077934 -9.268408 1.657199 81.664215 2.171377 -3.769496 50.860275 42.577377 -31.794491 87.487709 10.471458 -10.199956 92.519615 2.956037 -5.337673 8.128983 -2.470934 17.315687 37.846661 -0.840764 -13.371714 6.122660 0.834404 11.652216 -12.910144 -0.772250 4.495298 -8.555221 7.458571 0.775455 16.588833 3.192840 -6.674147 -9.815232 -10.452852 12.509237 -3.662988 0.103418 -1.302254 
